<svg xmlns="http://www.w3.org/2000/svg" xmlns:xlink="http://www.w3.org/1999/xlink" version="1.1" x="0px" y="0px" viewBox="0 0 100 125" style="enable-background:new 0 0 100 100;" xml:space="preserve"><g><circle cx="36.86" cy="24.95" r="7.22"/><circle cx="30.67" cy="18.43" r="1.3"/><circle cx="36.33" cy="16.15" r="1.3"/><circle cx="41.87" cy="17.58" r="1.3"/><circle cx="45.13" cy="21.79" r="1.3"/><circle cx="45.38" cy="26.95" r="1.3"/><circle cx="28.06" cy="24.12" r="1.3"/><circle cx="29.16" cy="29.55" r="1.3"/><circle cx="32.99" cy="33.28" r="1.3"/><circle cx="38.09" cy="34.12" r="1.3"/><circle cx="42.53" cy="32.26" r="1.3"/></g><g><circle cx="36.86" cy="50.58" r="7.22"/><circle cx="30.67" cy="44.05" r="1.3"/><circle cx="36.33" cy="41.77" r="1.3"/><circle cx="41.87" cy="43.2" r="1.3"/><circle cx="45.13" cy="47.42" r="1.3"/><circle cx="45.38" cy="52.58" r="1.3"/><circle cx="28.06" cy="49.75" r="1.3"/><circle cx="29.16" cy="55.18" r="1.3"/><circle cx="32.99" cy="58.91" r="1.3"/><circle cx="38.09" cy="59.74" r="1.3"/><circle cx="42.53" cy="57.89" r="1.3"/></g><g><circle cx="36.86" cy="74.69" r="7.22"/><circle cx="30.67" cy="68.16" r="1.3"/><circle cx="36.33" cy="65.88" r="1.3"/><circle cx="41.87" cy="67.31" r="1.3"/><circle cx="45.13" cy="71.53" r="1.3"/><circle cx="45.38" cy="76.69" r="1.3"/><circle cx="28.06" cy="73.86" r="1.3"/><circle cx="29.16" cy="79.29" r="1.3"/><circle cx="32.99" cy="83.02" r="1.3"/><circle cx="38.09" cy="83.85" r="1.3"/><circle cx="42.53" cy="82" r="1.3"/></g><g><circle cx="63.42" cy="24.95" r="7.22"/><circle cx="57.23" cy="18.43" r="1.3"/><circle cx="62.89" cy="16.15" r="1.3"/><circle cx="68.43" cy="17.58" r="1.3"/><circle cx="71.69" cy="21.79" r="1.3"/><circle cx="71.94" cy="26.95" r="1.3"/><circle cx="54.62" cy="24.12" r="1.3"/><circle cx="55.72" cy="29.55" r="1.3"/><circle cx="59.55" cy="33.28" r="1.3"/><circle cx="64.65" cy="34.12" r="1.3"/><circle cx="69.09" cy="32.26" r="1.3"/></g><g><circle cx="63.42" cy="50.58" r="7.22"/><circle cx="57.23" cy="44.05" r="1.3"/><circle cx="62.89" cy="41.77" r="1.3"/><circle cx="68.43" cy="43.2" r="1.3"/><circle cx="71.69" cy="47.42" r="1.3"/><circle cx="71.94" cy="52.58" r="1.3"/><circle cx="54.62" cy="49.75" r="1.3"/><circle cx="55.72" cy="55.18" r="1.3"/><circle cx="59.55" cy="58.91" r="1.3"/><circle cx="64.65" cy="59.74" r="1.3"/><circle cx="69.09" cy="57.89" r="1.3"/></g><g><circle cx="63.42" cy="74.69" r="7.22"/><circle cx="57.23" cy="68.16" r="1.3"/><circle cx="62.89" cy="65.88" r="1.3"/><circle cx="68.43" cy="67.31" r="1.3"/><circle cx="71.69" cy="71.53" r="1.3"/><circle cx="71.94" cy="76.69" r="1.3"/><circle cx="54.62" cy="73.86" r="1.3"/><circle cx="55.72" cy="79.29" r="1.3"/><circle cx="59.55" cy="83.02" r="1.3"/><circle cx="64.65" cy="83.85" r="1.3"/><circle cx="69.09" cy="82" r="1.3"/></g><text x="0" y="115" fill="#000000" font-size="5px" font-weight="bold" font-family="'Helvetica Neue', Helvetica, Arial-Unicode, Arial, Sans-serif">Created by Gabrielle Wallis</text><text x="0" y="120" fill="#000000" font-size="5px" font-weight="bold" font-family="'Helvetica Neue', Helvetica, Arial-Unicode, Arial, Sans-serif">from the Noun Project</text></svg>