<svg xmlns="http://www.w3.org/2000/svg" xmlns:xlink="http://www.w3.org/1999/xlink" viewBox="0 0 100 125" version="1.1" x="0px" y="0px"><title>meeting room 4</title><g stroke="none" stroke-width="1" fill="none" fill-rule="evenodd"><path d="M86.7198578,47.5465762 L98.31735,47.5465762 C99.2451025,47.5465762 100,48.3018457 100,49.2300586 L100,56.8333809 C100,57.7615938 99.2451025,58.5168652 98.31735,58.5168652 L86.7198578,58.5168652 C85.7921053,58.5168652 85.0372078,57.7615938 85.0372078,56.8333809 L85.0372078,49.2300586 C85.0372078,48.3018457 85.7921053,47.5465762 86.7198578,47.5465762 Z M86.7198578,82.9794434 L98.31735,82.9794434 C99.2451025,82.9794434 100,83.7347129 100,84.6629258 L100,92.266248 C100,93.1944609 99.2451025,93.9497324 98.31735,93.9497324 L86.7198578,93.9497324 C85.7921053,93.9497324 85.0372078,93.1944609 85.0372078,92.266248 L85.0372078,84.6629258 C85.0372078,83.7347129 85.7921053,82.9794434 86.7198578,82.9794434 Z M86.7198578,65.1968613 L98.31735,65.1968613 C99.2451025,65.1968613 100,65.9521328 100,66.8803437 L100,74.483668 C100,75.4118789 99.2451025,76.1671504 98.31735,76.1671504 L86.7198578,76.1671504 C85.7921053,76.1671504 85.0372078,75.4118789 85.0372078,74.483668 L85.0372078,66.8803437 C85.0372078,65.9521328 85.7921053,65.1968613 86.7198578,65.1968613 Z M61.991107,43.0642051 C61.991107,42.1344297 62.7460047,41.3778867 63.6737572,41.3778867 L77.4193381,41.3778867 C78.3470906,41.3778867 79.1019881,42.1344297 79.1019881,43.0642051 L79.1019881,98.3136816 C79.1019881,99.243457 78.3470906,100 77.4193381,100 L63.6737572,100 C62.7460047,100 61.991107,99.243457 61.991107,98.3136816 L61.991107,43.0642051 Z M48.5967178,20.7088945 C49.525975,20.7088945 50.2820969,21.4642129 50.2820969,22.3924824 L50.2820969,36.1457266 C50.2820969,37.0739961 49.525975,37.8293145 48.5967178,37.8293145 L1.6853791,37.8293145 C0.756121875,37.8293145 0,37.0739961 0,36.1457266 L0,22.3924824 C0,21.4642129 0.756121875,20.7088945 1.6853791,20.7088945 L48.5967178,20.7088945 Z M21.7063648,1.68358789 L21.7063648,13.2875449 C21.7063648,14.2158145 20.9515145,14.9711328 20.0238199,14.9711328 L12.4247324,14.9711328 C11.4970379,14.9711328 10.7421875,14.2158145 10.7421875,13.2875449 L10.7421875,1.68358789 C10.7421875,0.755318359 11.4970379,0 12.4247324,0 L20.0238199,0 C20.9515145,0 21.7063648,0.755318359 21.7063648,1.68358789 Z M39.4790387,1.68358789 L39.4790387,13.2875449 C39.4790387,14.2158145 38.7241883,14.9711328 37.7964938,14.9711328 L30.1974063,14.9711328 C29.2697117,14.9711328 28.5148613,14.2158145 28.5148613,13.2875449 L28.5148613,1.68358789 C28.5148613,0.755318359 29.2697117,0 30.1974063,0 L37.7964938,0 C38.7241883,0 39.4790387,0.755318359 39.4790387,1.68358789 Z M48.5967178,62.0523984 C49.525975,62.0523984 50.2820969,62.8077168 50.2820969,63.7359863 L50.2820969,77.4892285 C50.2820969,78.417498 49.525975,79.1728164 48.5967178,79.1728164 L1.6853791,79.1728164 C0.756121875,79.1728164 0,78.417498 0,77.4892285 L0,63.7359863 C0,62.8077168 0.756121875,62.0523984 1.6853791,62.0523984 L48.5967178,62.0523984 Z M21.7063648,86.7124551 L21.7063648,98.3164121 C21.7063648,99.2446816 20.9515145,100 20.0238199,100 L12.4247324,100 C11.4970379,100 10.7421875,99.2446816 10.7421875,98.3164121 L10.7421875,86.7124551 C10.7421875,85.7841855 11.4970379,85.0288672 12.4247324,85.0288672 L20.0238199,85.0288672 C20.9515145,85.0288672 21.7063648,85.7841855 21.7063648,86.7124551 Z M39.4790387,86.7124551 L39.4790387,98.3164121 C39.4790387,99.2446816 38.7241883,100 37.7964938,100 L30.1974063,100 C29.2697117,100 28.5148613,99.2446816 28.5148613,98.3164121 L28.5148613,86.7124551 C28.5148613,85.7841855 29.2697117,85.0288672 30.1974063,85.0288672 L37.7964938,85.0288672 C38.7241883,85.0288672 39.4790387,85.7841855 39.4790387,86.7124551 Z" fill="#000000" fill-rule="nonzero"/></g><text x="0" y="115" fill="#000000" font-size="5px" font-weight="bold" font-family="'Helvetica Neue', Helvetica, Arial-Unicode, Arial, Sans-serif">Created by jc werly</text><text x="0" y="120" fill="#000000" font-size="5px" font-weight="bold" font-family="'Helvetica Neue', Helvetica, Arial-Unicode, Arial, Sans-serif">from the Noun Project</text></svg>