<svg xmlns="http://www.w3.org/2000/svg" xmlns:xlink="http://www.w3.org/1999/xlink" viewBox="0 0 100 125" version="1.1" x="0px" y="0px"><title>meeting room 3</title><g stroke="none" stroke-width="1" fill="none" fill-rule="evenodd"><path d="M86.7198055,26.8479965 L98.3173434,26.8479965 C99.2450994,26.8479965 100,27.6030572 100,28.5310102 L100,36.1322154 C100,37.060168 99.2450994,37.8152285 98.3173434,37.8152285 L86.7198055,37.8152285 C85.7920492,37.8152285 85.0371488,37.060168 85.0371488,36.1322154 L85.0371488,28.5310102 C85.0371488,27.6030572 85.7920492,26.8479965 86.7198055,26.8479965 Z M86.7198055,62.2709922 L98.3173434,62.2709922 C99.2450994,62.2709922 100,63.0260527 100,63.9540059 L100,71.5552109 C100,72.4831641 99.2450994,73.2382246 98.3173434,73.2382246 L86.7198055,73.2382246 C85.7920492,73.2382246 85.0371488,72.4831641 85.0371488,71.5552109 L85.0371488,63.9540059 C85.0371488,63.0260527 85.7920492,62.2709922 86.7198055,62.2709922 Z M86.7198055,44.4933652 L98.3173434,44.4933652 C99.2450994,44.4933652 100,45.2484258 100,46.1763789 L100,53.777584 C100,54.7055371 99.2450994,55.4605977 98.3173434,55.4605977 L86.7198055,55.4605977 C85.7920492,55.4605977 85.0371488,54.7055371 85.0371488,53.777584 L85.0371488,46.1763789 C85.0371488,45.2484258 85.7920492,44.4933652 86.7198055,44.4933652 Z M73.2424764,86.7161563 L73.2424764,98.3168809 C73.2424764,99.2448926 72.487623,100 71.5599248,100 L63.9608072,100 C63.0331092,100 62.2782559,99.2448926 62.2782559,98.3168809 L62.2782559,86.7161563 C62.2782559,85.7881465 63.0331092,85.0330371 63.9608072,85.0330371 L71.5599248,85.0330371 C72.487623,85.0330371 73.2424764,85.7881465 73.2424764,86.7161563 Z M37.82921,86.7161563 L37.82921,98.3168809 C37.82921,99.2448926 37.0743566,100 36.1466584,100 L28.5475408,100 C27.6198428,100 26.8649893,99.2448926 26.8649893,98.3168809 L26.8649893,86.7161563 C26.8649893,85.7881465 27.6198428,85.0330371 28.5475408,85.0330371 L36.1466584,85.0330371 C37.0743566,85.0330371 37.82921,85.7881465 37.82921,86.7161563 Z M63.3260348,79.2506367 L36.5557281,79.2506367 C36.4435395,79.2743398 36.3272689,79.2868066 36.208149,79.2868066 L22.4625139,79.2868066 C21.5347576,79.2868066 20.7798572,78.5304746 20.7798572,77.600959 L20.7798572,22.3668754 C20.7798572,21.4373592 21.5347576,20.6810266 22.4625139,20.6810266 L36.208149,20.6810266 C37.1359053,20.6810266 37.8908057,21.4373592 37.8908057,22.3668754 L37.8908057,62.1349863 L61.9909572,62.1349863 L61.9909572,22.3668754 C61.9909572,21.4373592 62.7458578,20.6810266 63.6736139,20.6810266 L77.419249,20.6810266 C78.3470053,20.6810266 79.1019057,21.4373592 79.1019057,22.3668754 L79.1019057,77.600959 C79.1019057,78.5304746 78.3470053,79.2868066 77.419249,79.2868066 L63.6736139,79.2868066 C63.5544939,79.2868066 63.4382234,79.2743398 63.3260348,79.2506367 Z M55.6019539,86.7161563 L55.6019539,98.3168809 C55.6019539,99.2448926 54.8471004,100 53.9194023,100 L46.3202848,100 C45.3925867,100 44.6377332,99.2448926 44.6377332,98.3168809 L44.6377332,86.7161563 C44.6377332,85.7881465 45.3925867,85.0330371 46.3202848,85.0330371 L53.9194023,85.0330371 C54.8471004,85.0330371 55.6019539,85.7881465 55.6019539,86.7161563 Z M1.68265664,26.8479965 L13.2801945,26.8479965 C14.2079508,26.8479965 14.9628512,27.6030572 14.9628512,28.5310102 L14.9628512,36.1322154 C14.9628512,37.060168 14.2079508,37.8152285 13.2801945,37.8152285 L1.68265664,37.8152285 C0.754900586,37.8152285 0,37.060168 0,36.1322154 L0,28.5310102 C0,27.6030572 0.754900586,26.8479965 1.68265664,26.8479965 Z M1.68265664,62.2709922 L13.2801945,62.2709922 C14.2079508,62.2709922 14.9628512,63.0260527 14.9628512,63.9540059 L14.9628512,71.5552109 C14.9628512,72.4831641 14.2079508,73.2382246 13.2801945,73.2382246 L1.68265664,73.2382246 C0.754900586,73.2382246 0,72.4831641 0,71.5552109 L0,63.9540059 C0,63.0260527 0.754900586,62.2709922 1.68265664,62.2709922 Z M1.68265664,44.4933652 L13.2801945,44.4933652 C14.2079508,44.4933652 14.9628512,45.2484258 14.9628512,46.1763789 L14.9628512,53.777584 C14.9628512,54.7055371 14.2079508,55.4605977 13.2801945,55.4605977 L1.68265664,55.4605977 C0.754900586,55.4605977 0,54.7055371 0,53.777584 L0,46.1763789 C0,45.2484258 0.754900586,44.4933652 1.68265664,44.4933652 Z M46.4853221,1.68311895 L46.4853221,13.2838432 C46.4853221,14.2118541 45.7304686,14.9669621 44.8027705,14.9669621 L37.2036529,14.9669621 C36.2759549,14.9669621 35.5211014,14.2118541 35.5211014,13.2838432 L35.5211014,1.68311895 C35.5211014,0.755108008 36.2759549,0 37.2036529,0 L44.8027705,0 C45.7304686,0 46.4853221,0.755108008 46.4853221,1.68311895 Z M64.258066,1.68311895 L64.258066,13.2838432 C64.258066,14.2118541 63.5032125,14.9669621 62.5755145,14.9669621 L54.9763969,14.9669621 C54.0486986,14.9669621 53.2938453,14.2118541 53.2938453,13.2838432 L53.2938453,1.68311895 C53.2938453,0.755108008 54.0486986,0 54.9763969,0 L62.5755145,0 C63.5032125,0 64.258066,0.755108008 64.258066,1.68311895 Z" fill="#000000" fill-rule="nonzero"/></g><text x="0" y="115" fill="#000000" font-size="5px" font-weight="bold" font-family="'Helvetica Neue', Helvetica, Arial-Unicode, Arial, Sans-serif">Created by jc werly</text><text x="0" y="120" fill="#000000" font-size="5px" font-weight="bold" font-family="'Helvetica Neue', Helvetica, Arial-Unicode, Arial, Sans-serif">from the Noun Project</text></svg>