<svg xmlns="http://www.w3.org/2000/svg" xmlns:xlink="http://www.w3.org/1999/xlink" viewBox="0 0 100 125" version="1.1" x="0px" y="0px"><title>meeting room 2</title><g stroke="none" stroke-width="1" fill="none" fill-rule="evenodd"><path d="M9.28163242,85.0374031 C10.209327,85.0374031 10.9641773,85.7923006 10.9641773,86.7200531 L10.9641773,98.31735 C10.9641773,99.2451025 10.209327,100 9.28163242,100 L1.68254492,100 C0.754850391,100 0,99.2451025 0,98.31735 L0,86.7200531 C0,85.7923006 0.754850391,85.0374031 1.68254492,85.0374031 L9.28163242,85.0374031 Z M28.7411479,86.7200531 L28.7411479,98.31735 C28.7411479,99.2451025 27.9862975,100 27.0586029,100 L19.4595154,100 C18.5318209,100 17.7769705,99.2451025 17.7769705,98.31735 L17.7769705,86.7200531 C17.7769705,85.7923006 18.5318209,85.0374031 19.4595154,85.0374031 L27.0586029,85.0374031 C27.9862975,85.0374031 28.7411479,85.7923006 28.7411479,86.7200531 Z M46.5138217,86.7200531 L46.5138217,98.31735 C46.5138217,99.2451025 45.7589713,100 44.8312768,100 L37.2321893,100 C36.3044947,100 35.5496443,99.2451025 35.5496443,98.31735 L35.5496443,86.7200531 C35.5496443,85.7923006 36.3044947,85.0374031 37.2321893,85.0374031 L44.8312768,85.0374031 C45.7589713,85.0374031 46.5138217,85.7923006 46.5138217,86.7200531 Z M64.2864955,86.7200531 L64.2864955,98.31735 C64.2864955,99.2451025 63.5316451,100 62.6039506,100 L55.0048631,100 C54.0771686,100 53.3223182,99.2451025 53.3223182,98.31735 L53.3223182,86.7200531 C53.3223182,85.7923006 54.0771686,85.0374031 55.0048631,85.0374031 L62.6039506,85.0374031 C63.5316451,85.0374031 64.2864955,85.7923006 64.2864955,86.7200531 Z M82.0591693,86.7200531 L82.0591693,98.31735 C82.0591693,99.2451025 81.3043189,100 80.3766244,100 L72.7775369,100 C71.8498424,100 71.094992,99.2451025 71.094992,98.31735 L71.094992,86.7200531 C71.094992,85.7923006 71.8498424,85.0374031 72.7775369,85.0374031 L80.3766244,85.0374031 C81.3043189,85.0374031 82.0591693,85.7923006 82.0591693,86.7200531 Z M100,86.7200531 L100,98.31735 C100,99.2451025 99.2451496,100 98.3174551,100 L90.7183676,100 C89.790673,100 89.0358227,99.2451025 89.0358227,98.31735 L89.0358227,86.7200531 C89.0358227,85.7923006 89.790673,85.0374031 90.7183676,85.0374031 L98.3174551,85.0374031 C99.2451496,85.0374031 100,85.7923006 100,86.7200531 Z M73.1316232,65.9917186 L73.1316232,77.5892107 C73.1316232,78.5169633 72.3767729,79.2718607 71.4490783,79.2718607 L63.8499908,79.2718607 C62.9222963,79.2718607 62.1674459,78.5169633 62.1674459,77.5892107 L62.1674459,65.9917186 C62.1674459,65.063966 62.9222963,64.3090686 63.8499908,64.3090686 L71.4490783,64.3090686 C72.3767729,64.3090686 73.1316232,65.063966 73.1316232,65.9917186 Z M90.8998051,65.9917186 L90.8998051,77.5892107 C90.8998051,78.5169633 90.1449547,79.2718607 89.2172602,79.2718607 L81.6181727,79.2718607 C80.6904781,79.2718607 79.9356277,78.5169633 79.9356277,77.5892107 L79.9356277,65.9917186 C79.9356277,65.063966 80.6904781,64.3090686 81.6181727,64.3090686 L89.2172602,64.3090686 C90.1449547,64.3090686 90.8998051,65.063966 90.8998051,65.9917186 Z M82.1156123,45.3032285 L82.1156123,56.9003301 C82.1156123,57.8280826 81.3607619,58.5829801 80.4330674,58.5829801 L72.8339799,58.5829801 C71.9062854,58.5829801 71.151435,57.8280826 71.151435,56.9003301 L71.151435,45.3032285 C71.151435,44.3754762 71.9062854,43.6205785 72.8339799,43.6205785 L80.4330674,43.6205785 C81.3607619,43.6205785 82.1156123,44.3754762 82.1156123,45.3032285 Z M18.267965,64.3090686 C19.1956596,64.3090686 19.95051,65.063966 19.95051,65.9917186 L19.95051,77.5892107 C19.95051,78.5169633 19.1956596,79.2718607 18.267965,79.2718607 L10.6688775,79.2718607 C9.74118301,79.2718607 8.98633262,78.5169633 8.98633262,77.5892107 L8.98633262,65.9917186 C8.98633262,65.063966 9.74118301,64.3090686 10.6688775,64.3090686 L18.267965,64.3090686 Z M37.7184965,65.9917186 L37.7184965,77.5892107 C37.7184965,78.5169633 36.9636461,79.2718607 36.0359516,79.2718607 L28.4368641,79.2718607 C27.5091695,79.2718607 26.7543191,78.5169633 26.7543191,77.5892107 L26.7543191,65.9917186 C26.7543191,65.063966 27.5091695,64.3090686 28.4368641,64.3090686 L36.0359516,64.3090686 C36.9636461,64.3090686 37.7184965,65.063966 37.7184965,65.9917186 Z M27.2519541,43.6205785 C28.1796484,43.6205785 28.9344988,44.3754762 28.9344988,45.3032285 L28.9344988,56.9003301 C28.9344988,57.8280826 28.1796484,58.5829801 27.2519541,58.5829801 L19.6528664,58.5829801 C18.7251719,58.5829801 17.9703217,57.8280826 17.9703217,56.9003301 L17.9703217,45.3032285 C17.9703217,44.3754762 18.7251719,43.6205785 19.6528664,43.6205785 L27.2519541,43.6205785 Z M98.3146209,20.7797752 C99.2438781,20.7797752 100,21.5346729 100,22.4624252 L100,36.2080063 C100,37.1357588 99.2438781,37.8906563 98.3146209,37.8906563 L1.68967578,37.8906563 C0.760418555,37.8906563 0.00429667969,37.1357588 0.00429667969,36.2080063 L0.00429667969,22.4624252 C0.00429667969,21.5346729 0.760418555,20.7797752 1.68967578,20.7797752 L98.3146209,20.7797752 Z M46.7024854,45.3032285 L46.7024854,56.9005254 C46.7024854,57.8282779 45.9476352,58.5831754 45.0199406,58.5831754 L37.4208529,58.5831754 C36.4931586,58.5831754 35.7383082,57.8282779 35.7383082,56.9005254 L35.7383082,45.3032285 C35.7383082,44.3754762 36.4931586,43.6205785 37.4208529,43.6205785 L45.0199406,43.6205785 C45.9476352,43.6205785 46.7024854,44.3754762 46.7024854,45.3032285 Z M55.4911703,65.9917186 L55.4911703,77.5892107 C55.4911703,78.5169633 54.7363199,79.2718607 53.8086254,79.2718607 L46.2095379,79.2718607 C45.2818434,79.2718607 44.526993,78.5169633 44.526993,77.5892107 L44.526993,65.9917186 C44.526993,65.063966 45.2818434,64.3090686 46.2095379,64.3090686 L53.8086254,64.3090686 C54.7363199,64.3090686 55.4911703,65.063966 55.4911703,65.9917186 Z M64.4751592,45.3032285 L64.4751592,56.9005254 C64.4751592,57.8282779 63.720309,58.5831754 62.7926145,58.5831754 L55.1935268,58.5831754 C54.2658324,58.5831754 53.510982,57.8282779 53.510982,56.9005254 L53.510982,45.3032285 C53.510982,44.3754762 54.2658324,43.6205785 55.1935268,43.6205785 L62.7926145,43.6205785 C63.720309,43.6205785 64.4751592,44.3754762 64.4751592,45.3032285 Z M46.5290805,1.68265 L46.5290805,13.2799469 C46.5290805,14.2076994 45.7742301,14.9625969 44.8465355,14.9625969 L37.247448,14.9625969 C36.3197535,14.9625969 35.5649031,14.2076994 35.5649031,13.2799469 L35.5649031,1.68265 C35.5649031,0.754897461 36.3197535,0 37.247448,0 L44.8465355,0 C45.7742301,0 46.5290805,0.754897461 46.5290805,1.68265 Z M64.3017543,1.68265 L64.3017543,13.2799469 C64.3017543,14.2076994 63.5469039,14.9625969 62.6192094,14.9625969 L55.0201219,14.9625969 C54.0924273,14.9625969 53.337577,14.2076994 53.337577,13.2799469 L53.337577,1.68265 C53.337577,0.754897461 54.0924273,0 55.0201219,0 L62.6192094,0 C63.5469039,0 64.3017543,0.754897461 64.3017543,1.68265 Z" fill="#000000" fill-rule="nonzero"/></g><text x="0" y="115" fill="#000000" font-size="5px" font-weight="bold" font-family="'Helvetica Neue', Helvetica, Arial-Unicode, Arial, Sans-serif">Created by jc werly</text><text x="0" y="120" fill="#000000" font-size="5px" font-weight="bold" font-family="'Helvetica Neue', Helvetica, Arial-Unicode, Arial, Sans-serif">from the Noun Project</text></svg>